<svg xmlns="http://www.w3.org/2000/svg" viewBox="0 0 900 380" width="900" height="380" fill="none">
  <!-- czarna Honda, side view, gag S06 -->
  <g stroke="#8b949e" stroke-width="3" stroke-linejoin="round" stroke-linecap="round">
    <!-- body -->
    <path d="M60 250 L120 250 C140 205 175 175 250 168 L360 160 C420 120 500 110 600 118
             C700 126 760 160 790 205 L840 218 C860 224 868 236 868 250 L840 250"
          fill="#15181d"/>
    <!-- lower body line -->
    <path d="M60 250 L868 250" />
    <!-- cabin glass -->
    <path d="M300 168 L360 130 C420 118 500 112 560 120 L600 165 Z" fill="#0e1116"/>
    <line x1="452" y1="120" x2="452" y2="167" />
    <!-- door line -->
    <path d="M470 170 L470 245" />
    <!-- headlight -->
    <path d="M840 218 L862 224 L862 240 L836 240" fill="#e6e8eb" stroke="#e6e8eb"/>
  </g>
  <!-- wheels -->
  <g>
    <circle cx="230" cy="252" r="52" fill="#0e1116" stroke="#8b949e" stroke-width="3"/>
    <circle cx="230" cy="252" r="24" fill="#15181d" stroke="#8b949e" stroke-width="3"/>
    <circle cx="690" cy="252" r="52" fill="#0e1116" stroke="#8b949e" stroke-width="3"/>
    <circle cx="690" cy="252" r="24" fill="#15181d" stroke="#8b949e" stroke-width="3"/>
  </g>
  <!-- plate -->
  <g>
    <rect x="792" y="228" width="60" height="20" rx="3" fill="#e6e8eb"/>
    <text x="822" y="243" font-family="'JetBrains Mono',monospace" font-size="14"
          fill="#0e1116" text-anchor="middle" font-weight="700">HND-1</text>
  </g>
</svg>
